<?xml version="1.0" encoding="utf-8"?>
<!-- Generator: Adobe Illustrator 16.0.0, SVG Export Plug-In . SVG Version: 6.00 Build 0)  -->
<!DOCTYPE svg PUBLIC "-//W3C//DTD SVG 1.1//EN" "http://www.w3.org/Graphics/SVG/1.1/DTD/svg11.dtd">
<svg version="1.1" xmlns="http://www.w3.org/2000/svg" xmlns:xlink="http://www.w3.org/1999/xlink" x="0px" y="0px"
	 width="283.464px" height="283.464px" viewBox="0 0 283.464 283.464" enable-background="new 0 0 283.464 283.464"
	 xml:space="preserve">
<g id="Capa_2" display="none">
	<rect x="-263.268" y="32.232" display="inline" fill="#3C3852" width="811" height="221"/>
</g>
<g id="Capa_1">
	<g>
		<g>
			<path fill="#3C3852" d="M228.865,161.013H120.322c-9.169,0-16.603-7.434-16.603-16.603s7.434-16.603,16.603-16.603h108.543
				c9.169,0,16.603,7.434,16.603,16.603S238.034,161.013,228.865,161.013z"/>
		</g>
		<g>
			<path fill="#3C3852" d="M177.371,112.025H99.936c-9.169,0-16.603-7.434-16.603-16.603S90.767,78.82,99.936,78.82h77.435
				c9.168,0,16.603,7.434,16.603,16.603S186.539,112.025,177.371,112.025z"/>
		</g>
		<g>
			<path fill="#3C3852" d="M110.96,63.037H72.767c-9.169,0-16.603-7.434-16.603-16.603s7.434-16.603,16.603-16.603h38.193
				c9.168,0,16.603,7.434,16.603,16.603S120.128,63.037,110.96,63.037z"/>
		</g>
		<g>
			<path fill="#007BAD" d="M177.371,210.001H99.936c-9.169,0-16.603-7.434-16.603-16.603s7.434-16.603,16.603-16.603h77.435
				c9.168,0,16.603,7.434,16.603,16.603S186.539,210.001,177.371,210.001z"/>
		</g>
		<g>
			<path fill="#007BAD" d="M110.96,258.978H72.767c-9.169,0-16.603-7.434-16.603-16.603s7.434-16.603,16.603-16.603h38.193
				c9.168,0,16.603,7.434,16.603,16.603S120.128,258.978,110.96,258.978z"/>
		</g>
	</g>
</g>
</svg>
