<?xml version="1.0" encoding="utf-8"?>
<!-- Generator: Adobe Illustrator 16.0.0, SVG Export Plug-In . SVG Version: 6.00 Build 0)  -->
<!DOCTYPE svg PUBLIC "-//W3C//DTD SVG 1.1//EN" "http://www.w3.org/Graphics/SVG/1.1/DTD/svg11.dtd">
<svg version="1.1" id="Capa_1" xmlns="http://www.w3.org/2000/svg" xmlns:xlink="http://www.w3.org/1999/xlink" x="0px" y="0px"
	 width="804px" height="213px" viewBox="0 0 804 213" enable-background="new 0 0 804 213" xml:space="preserve">
<g>
	<path fill="#3C3852" d="M218.757,109.396v-0.332c0-27.49,20.7-44.215,41.069-44.215c16.891,0,27.822,9.604,34.777,20.201V30.402
		h8.114v120.893h-8.114v-18.881c-7.287,11.096-18.051,20.867-34.777,20.867C239.458,153.281,218.757,136.887,218.757,109.396z
		 M295.101,109.232v-0.334c0-21.693-16.893-36.267-34.446-36.267c-18.382,0-33.122,13.414-33.122,36.103v0.33
		c0,22.191,15.401,36.436,33.122,36.436C278.208,145.5,295.101,130.76,295.101,109.232z"/>
	<path fill="#3C3852" d="M325.41,33.714h10.102V44.81H325.41V33.714z M326.403,66.836h8.116v84.459h-8.116V66.836z"/>
	<path fill="#3C3852" d="M351.244,126.783v-0.33c0-17.555,15.07-27.491,36.931-27.491c11.759,0,19.873,1.491,27.987,3.645v-3.645
		c0-17.056-10.433-25.833-27.821-25.833c-10.269,0-18.713,2.816-26.497,6.788l-2.98-7.12c9.274-4.306,18.383-7.286,29.975-7.286
		c11.426,0,20.535,3.146,26.662,9.274c5.631,5.63,8.612,13.414,8.612,23.847v52.663h-7.95v-14.076
		c-5.796,8.113-16.229,16.063-32.292,16.063C368.138,153.281,351.244,144.342,351.244,126.783z M416.328,119.664v-9.605
		c-7.119-1.822-16.562-3.809-28.65-3.809c-17.885,0-27.82,7.95-27.82,19.708v0.332c0,12.254,11.592,19.375,24.508,19.375
		C401.59,145.664,416.328,135.066,416.328,119.664z"/>
	<path fill="#3C3852" d="M446.142,30.402h8.112v120.893h-8.112V30.402z"/>
	<path fill="#3C3852" d="M472.142,109.232v-0.334c0-24.509,17.224-44.049,40.076-44.049c23.682,0,38.752,19.208,38.752,44.215
		c0,1.49,0,1.988-0.165,3.313h-70.051c1.489,21.031,16.56,33.287,33.122,33.287c13.08,0,22.023-5.795,28.98-13.25l5.63,4.969
		c-8.61,9.275-18.713,15.898-34.944,15.898C491.353,153.281,472.142,135.561,472.142,109.232z M542.193,105.091
		c-1.159-17.059-10.93-32.79-30.308-32.79c-16.726,0-29.643,14.075-31.132,32.79H542.193z"/>
	<path fill="#3C3852" d="M566.375,66.836h8.115v24.013c6.623-15.071,20.7-25.999,37.427-25.338v8.942h-0.828
		c-19.542,0-36.599,14.739-36.599,42.23v34.611h-8.115V66.836z"/>
	<path fill="#007BAD" d="M668.224,34.542h12.255l52.829,116.753h-14.076l-13.581-30.637h-63.095l-13.745,30.637h-13.413
		L668.224,34.542z M700.518,108.898l-26.332-59.12l-26.496,59.12H700.518z"/>
	<path fill="#007BAD" d="M749.045,35.37h13.084v115.925h-13.084V35.37z"/>
	<g>
		<path fill="#3C3852" d="M157.335,117.602H84.764c-6.132,0-11.102-4.971-11.102-11.1c0-6.131,4.969-11.102,11.102-11.102h72.572
			c6.133,0,11.102,4.971,11.102,11.102C168.438,112.631,163.468,117.602,157.335,117.602z"/>
	</g>
	<g>
		<path fill="#3C3852" d="M122.908,84.853H71.138c-6.131,0-11.102-4.971-11.102-11.101c0-6.133,4.97-11.103,11.102-11.103h51.771
			c6.132,0,11.102,4.97,11.102,11.103C134.01,79.882,129.041,84.853,122.908,84.853z"/>
	</g>
	<g>
		<path fill="#3C3852" d="M78.504,52.103h-25.53c-6.131,0-11.102-4.97-11.102-11.103c0-6.132,4.971-11.102,11.102-11.102h25.53
			c6.132,0,11.102,4.97,11.102,11.102C89.606,47.133,84.637,52.103,78.504,52.103z"/>
	</g>
	<g>
		<path fill="#007BAD" d="M122.908,150.348H71.138c-6.131,0-11.102-4.969-11.102-11.098c0-6.133,4.97-11.1,11.102-11.1h51.771
			c6.132,0,11.102,4.967,11.102,11.1C134.01,145.379,129.041,150.348,122.908,150.348z"/>
	</g>
	<g>
		<path fill="#007BAD" d="M78.504,183.102h-25.53c-6.131,0-11.102-4.971-11.102-11.102c0-6.129,4.971-11.1,11.102-11.1h25.53
			c6.132,0,11.102,4.971,11.102,11.1C89.606,178.131,84.637,183.102,78.504,183.102z"/>
	</g>
</g>
</svg>
